<?xml version="1.0" encoding="UTF-8"?>
<svg width="700pt" height="700pt" version="1.1" viewBox="0 0 700 700" xmlns="http://www.w3.org/2000/svg">
 <path d="m525.95 33.613c-15.504-0.36719-30.805 7.3945-39.051 21.48-9.8281 16.793-6.7383 37.645 6.1211 51.141l-143.03 244.42-143.03-244.42c12.848-13.496 15.918-34.328 6.0938-51.117-11.992-20.492-38.895-27.609-59.664-15.781-20.77 11.832-27.988 38.383-15.996 58.875 9.8281 16.793 29.676 24.566 47.949 20.324l150.25 256.73-77.379 132.23v0.003906c-1.8125 2.832-2.3789 6.2734-1.5664 9.5273s2.9336 6.0391 5.875 7.7148c2.9414 1.6797 6.4492 2.1016 9.7109 1.1719 3.2656-0.93359 6.0039-3.1328 7.5859-6.0977l70.172-119.93 70.184 119.93h0.003907c1.582 2.9648 4.3203 5.1641 7.582 6.0977 3.2656 0.92969 6.7695 0.50781 9.7109-1.1719 2.9414-1.6758 5.0625-4.4609 5.875-7.7148s0.25-6.6953-1.5664-9.5273l-77.379-132.23 150.25-256.73c18.277 4.2305 38.137-3.543 47.961-20.324 11.992-20.492 4.7383-47.055-16.031-58.887-6.4922-3.6953-13.582-5.5469-20.629-5.7148zm-2.5352 24.523c3.5859-0.24219 7.2969 0.55078 10.703 2.4883 9.0859 5.1758 12.109 16.309 6.8633 25.27-5.2461 8.9609-16.516 11.91-25.602 6.7344-9.0859-5.1758-12.098-16.246-6.8516-25.211 3.2773-5.6016 8.9102-8.8789 14.887-9.2852zm-346.84 0.011719c5.9844 0.39844 11.621 3.6602 14.898 9.2617 5.2461 8.9609 2.1953 20.059-6.8867 25.234-9.0859 5.1758-20.309 2.2031-25.555-6.7578-5.2461-8.9609-2.2578-20.07 6.8281-25.246 3.4062-1.9414 7.125-2.7305 10.715-2.4883z"/>
</svg>
